<svg id="__tmb-35524" xmlns="http://www.w3.org/2000/svg" viewBox="0 0 512 512" style="opacity: 1; transition: opacity 0.3s ease 0s; overflow: visible;"><rect x="0" y="0" width="512" height="512" fill="none"></rect><rect fill="none" viewBox="0 0 512 512" style="overflow: visible;"></rect><svg xmlns="http://www.w3.org/2000/svg" viewBox="0 0 512 512" style="overflow: visible;" data-bbox="32 55.045 448 401.91"><rect x="0" y="0" width="100%" height="100%" style="opacity: 0;" fill="#e6efe5" data-fl-background=""></rect><g transform="matrix(2.418806791305542, 0, 0, 2.418806791305542, 31.98877716064453, -49.305538177490234)"><svg id="OBJECTS" xmlns="http://www.w3.org/2000/svg" viewBox="0 0 185.21 185.21" width="185.21" height="185.21"><path class="cls-3" d="m88.53 99.34h-5.28c-.2.99-.41 1.97-.64 2.94-1.11 4.71-2.63 9.25-4.63 13.96h16.08c-2.1-4.7-3.69-9.23-4.86-13.94-.24-.98-.47-1.96-.67-2.96h0Zm-1.69 7.9c.46 2.16 1.2 4.13 2.33 6.26h-5.89c1.13-2.13 1.87-4.11 2.33-6.26h1.23Z" fill-rule="evenodd" fill="#c89121"></path><path class="cls-3" d="m86.57 69.06h-1.47c.26 10.8-.06 19.37-1.3 27.15h4.14c-1.31-7.78-1.64-16.36-1.37-27.15Z" fill-rule="evenodd" fill="#c89121"></path><path class="cls-3" d="m73.89 44.42h24.68c1.72 0 3.13 1.41 3.13 3.13v68.69h-4.21c-2.32-5-4.03-9.75-5.25-14.69-.18-.73-.35-1.47-.51-2.21h1.71c.86 0 1.57-.7 1.57-1.57s-.7-1.57-1.57-1.57h-2.33c-1.35-7.73-1.69-16.28-1.41-27.15h1.66c.87 0 1.57-.7 1.57-1.57s-.7-1.57-1.57-1.57h-.92c.22-.54.34-1.12.34-1.74 0-1.26-.51-2.4-1.34-3.22-.46-.46-1.03-.83-1.66-1.06v-3.69c0-.86-.7-1.57-1.57-1.57s-1.57.7-1.57 1.57v3.69c-.63.23-1.19.59-1.66 1.06-.83.83-1.33 1.97-1.33 3.22 0 .61.12 1.2.34 1.74h-1.24c-.86 0-1.57.7-1.57 1.57s.7 1.57 1.57 1.57h1.2c.27 10.86-.06 19.41-1.34 27.15h-1.94c-.86 0-1.57.7-1.57 1.57s.7 1.57 1.57 1.57h1.35c-.15.75-.32 1.49-.49 2.23-1.16 4.93-2.79 9.68-4.99 14.67h-3.82V47.55c0-1.72 1.41-3.13 3.13-3.13Z" fill-rule="evenodd" fill="#c89121"></path><path class="cls-3" d="m86.23 62.76c-.39 0-.75.16-1.01.42-.26.26-.42.61-.42 1.01s.16.75.42 1.01c.26.26.61.42 1.01.42s.75-.16 1.01-.42c.26-.26.42-.61.42-1.01s-.16-.75-.42-1.01c-.26-.26-.61-.42-1.01-.42Z" fill-rule="evenodd" fill="#c89121"></path><path class="cls-4" transform="matrix(0.08072077482938766, -0.9967367649078369, 0.9967367649078369, 0.08072077482938766, 55.849998474121094, 179.55999755859375)" fill="#b61141" data-type="rect" data-x="124.33" data-y="54.84" data-width="1.87" data-height="9.34" d="M124.33 54.84H126.2 V64.18 H124.33 Z"></path><path class="cls-2" d="m117.01 74.2l1.74.14.44-5.38c.05-.63.6-1.09 1.22-1.05.63.05 1.09.6 1.05 1.22l-.44 5.38 1.88.15.43-5.38c.05-.63.6-1.09 1.22-1.05.63.05 1.09.6 1.05 1.22l-.44 5.39 1.88.15.44-5.38c.05-.63.6-1.09 1.22-1.05.63.05 1.09.6 1.05 1.22l-.44 5.38 1.74.14.88-10.92-.66-.05h0s-12.71-1.03-12.71-1.03h-.01s-.66-.05-.66-.05l-.88 10.92Z" fill-rule="evenodd" fill="#b61141"></path><path class="cls-2" d="m116.01 86.57l1.74.14.44-5.38c.05-.63.6-1.09 1.22-1.05.63.05 1.09.6 1.05 1.22l-.44 5.38 1.88.15.44-5.38c.05-.63.6-1.09 1.22-1.05.63.05 1.09.6 1.05 1.22l-.44 5.38 1.88.15.43-5.38c.05-.63.6-1.09 1.22-1.05.63.05 1.09.6 1.05 1.22l-.44 5.39 1.74.14.82-10.11-14.04-1.14-.82 10.11Z" fill-rule="evenodd" fill="#b61141"></path><path class="cls-2" d="m115 98.95l1.74.14.44-5.38c.05-.63.6-1.09 1.22-1.05.63.05 1.09.6 1.05 1.22l-.44 5.38 1.88.15.43-5.38c.05-.63.6-1.1 1.22-1.05.63.05 1.09.6 1.05 1.22l-.44 5.38 1.88.15.43-5.38c.05-.63.6-1.09 1.22-1.05.63.05 1.09.6 1.05 1.22l-.43 5.39 1.74.14.82-10.11-14.04-1.14-.82 10.11Z" fill-rule="evenodd" fill="#b61141"></path><path class="cls-2" d="m114 111.32l1.74.14.43-5.38c.05-.63.6-1.1 1.22-1.05.63.05 1.09.6 1.05 1.22l-.44 5.38 1.88.15.43-5.38c.05-.63.6-1.09 1.22-1.05.63.05 1.09.6 1.05 1.22l-.28 3.49c.69-.64 1.38-1.28 2.05-1.93l.11-1.4c.05-.63.6-1.09 1.22-1.05.29.02.55.16.74.36.79-.82 1.57-1.66 2.33-2.5l.1-1.21-14.04-1.14-.82 10.11Z" fill-rule="evenodd" fill="#b61141"></path><path class="cls-2" d="m109.4 44.42h24.68c1.72 0 3.13 1.41 3.13 3.13v45.09c-1.44 2.18-3 4.32-4.66 6.43l.71-8.81 1.07.09c.63.05 1.17-.42 1.22-1.05.05-.63-.42-1.18-1.05-1.22l-1.06-.09.82-10.11 1.07.09c.63.05 1.17-.42 1.22-1.04.05-.63-.42-1.18-1.05-1.22l-1.06-.09 1.02-12.63c.07-.94-.63-1.76-1.57-1.84l-.66-.05.29-3.57c.07-.94-.63-1.76-1.57-1.84l-12.71-1.03c-.94-.07-1.76.63-1.84 1.57l-.29 3.56-.67-.05c-.94-.07-1.76.63-1.83 1.57l-1.02 12.62-1.46-.12c-.63-.05-1.17.42-1.22 1.05-.05.63.42 1.17 1.05 1.22l1.45.12-.82 10.11-1.46-.12c-.63-.05-1.18.42-1.22 1.05-.05.63.42 1.18 1.05 1.22l1.45.12-.82 10.11-1.46-.12c-.63-.05-1.18.42-1.22 1.05-.05.63.42 1.17 1.05 1.22l1.45.12-.82 10.11-1.46-.12c-.63-.05-1.18.42-1.22 1.05-.05.63.42 1.17 1.05 1.22l1.45.12-.51 6.32c-1.19.76-2.4 1.5-3.64 2.21V47.55c0-1.72 1.41-3.13 3.13-3.13Z" fill-rule="evenodd" fill="#b61141"></path><path class="cls-1" d="m151.12 60.49l-5.26 4.73c-1.47 1.32-3.73 1.2-5.05-.27-1.32-1.47-1.2-3.73.27-5.05l8.31-7.46-.07-.19c-.43-1.19-.93-2.38-1.5-3.55-.82-1.68-.26-4.02 1.55-5.06 1.81-1.04 4.18-.38 5.01 1.3.67 1.36 1.25 2.75 1.77 4.18.24.68.47 1.37.67 2.05l10.31 4.66c1.8.81 2.6 2.92 1.8 4.72-.81 1.8-2.92 2.6-4.72 1.8l-6.75-3.05c.48 2.3.75 4.62.84 6.95l4.01 2.64c1.24.81 1.58 2.48.76 3.71-.82 1.24-2.48 1.58-3.71.76l-1.32-.87c-.54 4.49-1.83 8.92-3.91 13.09-1.27 3.25-2.88 6.5-4.8 9.7-8.38 13.91-22.82 27.02-41.34 36.03l-.78.38c-18.34 8.75-37.26 11.84-53.09 9.76-44.87-5.91-48.79-44.62-18.87-75.13v-18.76c0-1.72 1.41-3.13 3.13-3.13h24.68c1.72 0 3.13 1.41 3.13 3.13v86.19c-2.36.15-4.77.22-7.22.2v-25.76h1.03c.86 0 1.57-.7 1.57-1.57v-4.45c0-.87-.7-1.57-1.57-1.57h-1.03v-15.88h1.03c.86 0 1.57-.7 1.57-1.57s-.7-1.57-1.57-1.57h-18.57c-.87 0-1.57.7-1.57 1.57s.7 1.57 1.57 1.57h1.03v15.88h-1.03c-.87 0-1.57.7-1.57 1.57v4.45c0 .87.7 1.57 1.57 1.57h1.03v23.5c-2.76-1.01-5.16-2.34-7.22-3.95v-57.94c-10.65 12.41-19.4 30.84-11.74 46.91l.09.2c5.24 10.77 16.76 17.33 31.21 19.23 14.84 1.95 32.68-1 50.09-9.3l.76-.36c17.55-8.54 31.2-20.89 39.07-33.97 3.81-6.32 6.24-12.79 7.1-19.05-1.17.49-2.55.09-3.27-1-.81-1.24-.47-2.9.76-3.71l2.8-1.85c-.11-2.19-.43-4.33-.99-6.41h0Zm-97.25 73.3c.66.04 1.31.07 1.96.09v-25.69h-10.25v24.47c.64.16 1.29.31 1.96.45v-22.28c0-.58.47-1.04 1.04-1.04s1.05.47 1.05 1.04v22.63c.16.02.32.05.48.07.56.05 1.11.09 1.66.13v-22.83c0-.58.47-1.04 1.04-1.04s1.05.47 1.05 1.04v22.97h0Zm-9.85-28.79h13.38c.14 0 .29.02.42.06h.61v-1.31h-15.44v1.31h.61c.13-.04.27-.06.42-.06h0Zm11.81-20.27h-10.25v15.88h10.25v-15.88h0Zm-8.56 4.75c-.88.88-1.42 2.09-1.42 3.43s.54 2.55 1.42 3.43c.88.88 2.09 1.42 3.43 1.42s2.55-.54 3.43-1.42c.88-.88 1.42-2.09 1.42-3.43s-.54-2.55-1.42-3.43c-.88-.88-2.09-1.42-3.43-1.42s-2.55.54-3.43 1.42h0Zm3.43.77c-.74 0-1.4.3-1.88.78-.48.48-.78 1.15-.78 1.88s.3 1.4.78 1.88c.48.48 1.15.78 1.88.78s1.4-.3 1.88-.78c.48-.48.78-1.15.78-1.88s-.3-1.4-.78-1.88c-.48-.48-1.15-.78-1.88-.78h0Zm-1.57-34.03v5.74c-.84.26-1.59.72-2.2 1.33-.96.96-1.56 2.29-1.56 3.76s.6 2.8 1.56 3.77c.61.61 1.36 1.07 2.2 1.33v1.19h-1.08c-1.65 0-3.15.68-4.24 1.76-1.09 1.09-1.76 2.59-1.76 4.24 0 .87.7 1.57 1.57 1.57h14.17c.86 0 1.57-.7 1.57-1.57 0-1.65-.68-3.15-1.76-4.24-1.09-1.09-2.59-1.76-4.24-1.76h-1.08v-1.19c.84-.26 1.59-.72 2.2-1.33.96-.96 1.56-2.29 1.56-3.77s-.6-2.8-1.56-3.76c-.6-.61-1.36-1.07-2.2-1.33v-5.74c0-.86-.7-1.57-1.57-1.57s-1.57.7-1.57 1.57h0Zm1.57 8.64c-.61 0-1.15.25-1.55.64s-.64.94-.64 1.55.25 1.15.64 1.55.94.64 1.55.64 1.15-.25 1.55-.64c.4-.4.64-.94.64-1.55s-.24-1.15-.64-1.55c-.4-.4-.95-.64-1.55-.64h0Zm-5.05 12.91h10.1c-.11-.17-.23-.32-.37-.46-.52-.52-1.24-.85-2.03-.85h-5.29c-.79 0-1.51.32-2.03.85-.14.14-.27.3-.38.46Z" fill="#407978" fill-rule="evenodd"></path></svg></g><path text="7DaysVisit" fill="#2d403f" space="preserve" text-anchor="middle" offset="0.5" font-scale="contain" font-size="48" font-family="Tilt Warp" transform="matrix(2.130918264389038, 0, 0, 2.130918264389038, 254.15673828125, 397.86151123046875)" font-style="normal" font-weight="400" data-fl-textpath="" d="M-94.556-32.64L-94.556-32.64Q-94.556-30.77 -94.556-28.82Q-94.556-26.88 -94.556-25.01L-94.556-25.01Q-97.296-18.82 -100.056-12.5Q-102.816-6.19 -105.556 0L-105.556 0Q-107.666 0 -109.876 0Q-112.076 0 -114.196 0L-114.196 0Q-111.456-6.19 -108.696-12.5Q-105.936-18.82 -103.196-25.01L-103.196-25.01Q-106.416-25.01 -109.756-25.01Q-113.086-25.01 -116.356-25.01L-116.356-25.01Q-116.356-26.88 -116.356-28.82Q-116.356-30.77 -116.356-32.64L-116.356-32.64Q-110.926-32.64 -105.436-32.64Q-99.936-32.64 -94.556-32.64ZM-89.856 0L-89.856 0Q-89.856-8.06 -89.856-16.32Q-89.856-24.58 -89.856-32.64L-89.856-32.64Q-86.976-32.64 -84.046-32.64Q-81.116-32.64 -78.236-32.64L-78.236-32.64Q-74.686-32.64 -71.716-31.42Q-68.736-30.19 -66.526-27.98Q-64.316-25.78 -63.096-22.82Q-61.876-19.87 -61.876-16.37L-61.876-16.37Q-61.876-12.86 -63.096-9.89Q-64.316-6.91 -66.526-4.68Q-68.736-2.45 -71.716-1.22Q-74.686 0 -78.236 0L-78.236 0Q-81.116 0 -84.046 0Q-86.976 0 -89.856 0ZM-78.236-25.06L-78.236-25.06Q-79.006-25.06 -79.826-25.06Q-80.636-25.06 -81.456-25.06L-81.456-25.06Q-81.456-20.74 -81.456-16.32Q-81.456-11.9 -81.456-7.58L-81.456-7.58Q-80.636-7.58 -79.826-7.58Q-79.006-7.58 -78.236-7.58L-78.236-7.58Q-75.836-7.58 -74.066-8.74Q-72.286-9.89 -71.326-11.88Q-70.366-13.87 -70.366-16.37L-70.366-16.37Q-70.366-18.86 -71.326-20.83Q-72.286-22.8 -74.066-23.93Q-75.836-25.06 -78.236-25.06ZM-41.184 0L-41.184 0Q-41.184-0.38 -41.184-0.74Q-41.184-1.1 -41.184-1.44L-41.184-1.44Q-42.384-0.43 -43.894 0.12Q-45.404 0.67 -47.134 0.67L-47.134 0.67Q-49.584 0.67 -51.744-0.26Q-53.904-1.2 -55.564-2.95Q-57.214-4.7 -58.154-7.1Q-59.084-9.5 -59.084-12.43L-59.084-12.43Q-59.084-15.41 -58.154-17.81Q-57.214-20.21 -55.564-21.91Q-53.904-23.62 -51.744-24.55Q-49.584-25.49 -47.184-25.49L-47.184-25.49Q-45.454-25.49 -43.924-24.94Q-42.384-24.38 -41.184-23.42L-41.184-23.42Q-41.184-23.81 -41.184-24.14Q-41.184-24.48 -41.184-24.82L-41.184-24.82Q-39.214-24.82 -37.204-24.82Q-35.184-24.82 -33.264-24.82L-33.264-24.82Q-33.264-18.67 -33.264-12.41Q-33.264-6.14 -33.264 0L-33.264 0Q-35.184 0 -37.204 0Q-39.214 0 -41.184 0ZM-46.084-6.34L-46.084-6.34Q-46.084-6.34 -46.084-6.34Q-46.084-6.34 -46.084-6.34L-46.084-6.34Q-43.774-6.34 -42.384-8.02Q-40.994-9.7 -40.994-12.43L-40.994-12.43Q-40.994-15.17 -42.384-16.82Q-43.774-18.48 -46.084-18.48L-46.084-18.48Q-48.434-18.48 -49.804-16.85Q-51.164-15.22 -51.164-12.43L-51.164-12.43Q-51.164-9.65 -49.804-7.99Q-48.434-6.34 -46.084-6.34ZM-25.684 7.68L-25.684 7.68Q-24.724 5.14 -23.684 2.57Q-22.654 0 -21.694-2.5L-21.694-2.5Q-23.954-8.02 -26.284-13.66Q-28.604-19.3-30.864-24.82L-30.864-24.82Q-28.754-24.82 -26.644-24.82Q-24.524-24.82 -22.464-24.82L-22.464-24.82Q-21.214-21.74 -19.944-18.58Q-18.674-15.41 -17.424-12.29L-17.424-12.29Q-16.274-15.41 -15.074-18.58Q-13.874-21.74 -12.724-24.82L-12.724-24.82Q-10.654-24.82 -8.594-24.82Q-6.524-24.82 -4.464-24.82L-4.464-24.82Q-7.684-16.8 -10.924-8.57Q-14.164-0.34 -17.374 7.68L-17.374 7.68Q-19.444 7.68 -21.524 7.68Q-23.614 7.68 -25.684 7.68ZM 16.656-7.68L 16.656-7.68Q 16.656-7.68  16.656-7.68Q 16.656-7.68  16.656-7.68L 16.656-7.68Q 16.656-4.7  14.996-2.81Q 13.346-0.91  10.556-0.05Q 7.776 0.82  4.346 0.7Q 0.916 0.58 -2.644-0.43L-2.644-0.43Q-2.644-2.26 -2.644-4.18Q-2.644-6.1 -2.644-7.92L-2.644-7.92Q-0.624-7.01  1.396-6.5Q 3.406-6  5.036-5.9Q 6.676-5.81  7.676-6.17Q 8.686-6.53  8.686-7.39L 8.686-7.39Q 8.686-8.06  7.846-8.45Q 7.006-8.83  5.666-9.14Q 4.316-9.46  2.806-9.91Q 1.296-10.37 -0.044-11.21Q-1.394-12.05 -2.234-13.46Q-3.074-14.88 -3.074-17.14L-3.074-17.14Q-3.074-19.82 -1.514-21.72Q 0.046-23.62  2.686-24.6Q 5.326-25.58  8.596-25.58Q 11.856-25.58  15.266-24.48L 15.266-24.48Q 15.266-22.66  15.266-20.74Q 15.266-18.82  15.266-16.99L 15.266-16.99Q 12.576-18.29  10.226-18.72Q 7.876-19.15  6.436-18.84Q 4.996-18.53  4.996-17.52L 4.996-17.52Q 4.996-16.85  5.836-16.49Q 6.676-16.13  7.996-15.84Q 9.316-15.55  10.826-15.07Q 12.336-14.59  13.656-13.75Q 14.976-12.91  15.816-11.45Q 16.656-9.98  16.656-7.68ZM 26.396-32.64L 26.396-32.64Q 28.176-27.17  29.926-21.6Q 31.676-16.03  33.456-10.56L 33.456-10.56Q 35.236-16.03  37.006-21.6Q 38.786-27.17  40.556-32.64L 40.556-32.64Q 42.626-32.64  44.736-32.64Q 46.846-32.64  48.916-32.64L 48.916-32.64Q 46.316-24.58  43.656-16.32Q 40.996-8.06  38.396 0L 38.396 0Q 35.906 0  33.386 0Q 30.866 0  28.366 0L 28.366 0Q 25.776-8.06  23.116-16.32Q 20.446-24.58  17.856-32.64L 17.856-32.64Q 19.966-32.64  22.126-32.64Q 24.286-32.64  26.396-32.64ZM 55.772-27.65L 55.772-27.65Q 55.772-27.65  55.772-27.65Q 55.772-27.65  55.772-27.65L 55.772-27.65Q 54.382-27.65  53.252-28.32Q 52.132-28.99  51.452-30.1Q 50.782-31.2  50.782-32.54L 50.782-32.54Q 50.782-33.89  51.452-34.97Q 52.132-36.05  53.252-36.72Q 54.382-37.39  55.772-37.39L 55.772-37.39Q 57.122-37.39  58.252-36.72Q 59.372-36.05  60.052-34.97Q 60.722-33.89  60.722-32.54L 60.722-32.54Q 60.722-31.2  60.052-30.1Q 59.372-28.99  58.252-28.32Q 57.122-27.65  55.772-27.65ZM 51.792 0L 51.792 0Q 51.792-6.14  51.792-12.41Q 51.792-18.67  51.792-24.82L 51.792-24.82Q 53.762-24.82  55.772-24.82Q 57.792-24.82  59.712-24.82L 59.712-24.82Q 59.712-18.67  59.712-12.41Q 59.712-6.14  59.712 0L 59.712 0Q 57.792 0  55.772 0Q 53.762 0  51.792 0ZM 84.192-7.68L 84.192-7.68Q 84.192-7.68  84.192-7.68Q 84.192-7.68  84.192-7.68L 84.192-7.68Q 84.192-4.7  82.532-2.81Q 80.882-0.91  78.092-0.05Q 75.312 0.82  71.882 0.7Q 68.452 0.58  64.892-0.43L 64.892-0.43Q 64.892-2.26  64.892-4.18Q 64.892-6.1  64.892-7.92L 64.892-7.92Q 66.912-7.01  68.932-6.5Q 70.942-6  72.572-5.9Q 74.212-5.81  75.212-6.17Q 76.222-6.53  76.222-7.39L 76.222-7.39Q 76.222-8.06  75.382-8.45Q 74.542-8.83  73.202-9.14Q 71.852-9.46  70.342-9.91Q 68.832-10.37  67.492-11.21Q 66.142-12.05  65.302-13.46Q 64.462-14.88  64.462-17.14L 64.462-17.14Q 64.462-19.82  66.022-21.72Q 67.582-23.62  70.222-24.6Q 72.862-25.58  76.132-25.58Q 79.392-25.58  82.802-24.48L 82.802-24.48Q 82.802-22.66  82.802-20.74Q 82.802-18.82  82.802-16.99L 82.802-16.99Q 80.112-18.29  77.762-18.72Q 75.412-19.15  73.972-18.84Q 72.532-18.53  72.532-17.52L 72.532-17.52Q 72.532-16.85  73.372-16.49Q 74.212-16.13  75.532-15.84Q 76.852-15.55  78.362-15.07Q 79.872-14.59  81.192-13.75Q 82.512-12.91  83.352-11.45Q 84.192-9.98  84.192-7.68ZM 92.252-27.65L 92.252-27.65Q 92.252-27.65  92.252-27.65Q 92.252-27.65  92.252-27.65L 92.252-27.65Q 90.862-27.65  89.732-28.32Q 88.612-28.99  87.932-30.1Q 87.262-31.2  87.262-32.54L 87.262-32.54Q 87.262-33.89  87.932-34.97Q 88.612-36.05  89.732-36.72Q 90.862-37.39  92.252-37.39L 92.252-37.39Q 93.602-37.39  94.732-36.72Q 95.852-36.05  96.532-34.97Q 97.202-33.89  97.202-32.54L 97.202-32.54Q 97.202-31.2  96.532-30.1Q 95.852-28.99  94.732-28.32Q 93.602-27.65  92.252-27.65ZM 88.272 0L 88.272 0Q 88.272-6.14  88.272-12.41Q 88.272-18.67  88.272-24.82L 88.272-24.82Q 90.242-24.82  92.252-24.82Q 94.272-24.82  96.192-24.82L 96.192-24.82Q 96.192-18.67  96.192-12.41Q 96.192-6.14  96.192 0L 96.192 0Q 94.272 0  92.252 0Q 90.242 0  88.272 0ZM 104.302 0L 104.302 0Q 104.302-4.42  104.302-8.88Q 104.302-13.34  104.302-17.71L 104.302-17.71Q 103.342-17.71  102.362-17.71Q 101.372-17.71  100.412-17.71L 100.412-17.71Q 100.412-19.49  100.412-21.26Q 100.412-23.04  100.412-24.82L 100.412-24.82Q 101.372-24.82  102.362-24.82Q 103.342-24.82  104.302-24.82L 104.302-24.82Q 104.302-26.5  104.302-28.15Q 104.302-29.81  104.302-31.44L 104.302-31.44Q 106.272-31.44  108.292-31.44Q 110.302-31.44  112.222-31.44L 112.222-31.44Q 112.222-29.81  112.222-28.15Q 112.222-26.5  112.222-24.82L 112.222-24.82Q 113.332-24.82  114.482-24.82Q 115.632-24.82  116.732-24.82L 116.732-24.82Q 116.732-23.04  116.732-21.26Q 116.732-19.49  116.732-17.71L 116.732-17.71Q 115.632-17.71  114.482-17.71Q 113.332-17.71  112.222-17.71L 112.222-17.71Q 112.222-13.34  112.222-8.88Q 112.222-4.42  112.222 0L 112.222 0Q 110.302 0  108.292 0Q 106.272 0  104.302 0Z"></path></svg></svg>